<svg width="30" height="20" viewBox="0 0 30 20" fill="none" xmlns="http://www.w3.org/2000/svg">
<path d="M29.5 8C29.3125 7.6875 27.4619 6.88813 27.4619 6.88813C27.7838 6.72188 28.0037 6.6875 28.0037 6C28.0037 5.25 28 5 27.5 5H25.8037C25.7969 4.985 25.7894 4.96937 25.7825 4.95375C24.6875 2.5625 24.5406 1.95812 22.9075 1.14437C20.7169 0.0549998 16.61 0 15 0C13.39 0 9.28312 0.0549998 7.09437 1.14437C5.45937 1.95687 5.5 2.375 4.21938 4.95375C4.21938 4.96062 4.20625 4.97875 4.19438 5H2.49625C2 5 1.99625 5.25 1.99625 6C1.99625 6.6875 2.21625 6.72188 2.53813 6.88813C2.53813 6.88813 0.75 7.75 0.5 8C0.25 8.25 0 10 0 13C0 16 0.25 19 0.25 19H0.99625C0.99625 19.875 1.125 20 1.5 20H6.5C6.875 20 7 19.875 7 19H23C23 19.875 23.125 20 23.5 20H28.625C28.875 20 29 19.8125 29 19H29.75C29.75 19 30 15.9375 30 13C30 10.0625 29.6875 8.3125 29.5 8ZM6.82875 10.8088C5.69045 10.9332 4.54633 10.997 3.40125 11C2.125 11 2.08125 11.0819 1.99125 10.285C1.95739 9.92027 1.9681 9.55277 2.02312 9.19063L2.0625 9H2.25C3 9 3.70438 9.03187 5.03438 9.42375C5.71083 9.62673 6.34708 9.94517 6.915 10.365C7.1875 10.5625 7.25 10.75 7.25 10.75L6.82875 10.8088ZM22.2763 15.3088L22 16H8C8 16 8.02437 15.9619 7.6875 15.3013C7.4375 14.8125 7.75 14.5 8.24438 14.3225C9.20188 13.9775 12 13 15 13C18 13 20.8538 13.8425 21.7812 14.3225C22.125 14.5 22.5519 14.625 22.2763 15.3125V15.3088ZM6.21375 6.77563C6.01187 6.78727 5.80953 6.78873 5.6075 6.78C5.77063 6.49 5.86125 6.16688 6.02063 5.82938C6.52063 4.76688 7.0925 3.56437 8.11063 3.0575C9.58187 2.325 12.6313 1.995 15 1.995C17.3687 1.995 20.4181 2.3225 21.8894 3.0575C22.9075 3.56437 23.4769 4.7675 23.9794 5.82938C24.14 6.17 24.2294 6.49563 24.3969 6.7875C24.2719 6.79438 24.1281 6.7875 23.785 6.77563H6.21375ZM27.9463 10.2825C27.8125 11.0625 27.9375 11 26.5987 11C25.4537 10.997 24.3096 10.9332 23.1712 10.8088C22.9931 10.7769 22.9425 10.4762 23.085 10.365C23.65 9.94051 24.2872 9.62163 24.9656 9.42375C26.2956 9.03187 27.0444 8.97937 27.7838 9.00562C27.8334 9.00752 27.8806 9.02772 27.9163 9.06234C27.9519 9.09696 27.9735 9.14354 27.9769 9.19312C28.0122 9.55694 28.0019 9.92374 27.9463 10.285V10.2825Z" fill="white"/>
</svg>
